<svg fill="none" height="354" viewBox="0 0 375 354" width="375" xmlns="http://www.w3.org/2000/svg" xmlns:xlink="http://www.w3.org/1999/xlink"><clipPath id="a"><path d="m-1.60815 37.5947h376.29v98.3243h-376.29z"/></clipPath><path d="m-1.60815 0h376.29v321h-376.29z" fill="#10b93e"/><path d="m387.761 289.526c-13.817-4.051-100.382 16.955-207.934 6.845-107.5516-10.11-213.4457 5.79-240.7965 35.682h448.7305z" fill="#0b9c32"/><path d="m427 296.583c-15.18-4.427-110.285 18.533-228.447 7.482-118.1628-11.05-234.504 6.329-264.553 39.002h493z" fill="#ededed"/><path d="m427 305.594c-15.18-4.427-110.285 18.532-228.447 7.482-118.1628-11.051-234.504 6.329-264.553 39.001h493z" fill="#f8f8f8"/><path d="m369.651 317.477c-11.633-3.409-84.514 14.273-175.065 5.762-90.551-8.51-179.7066 4.875-202.73395 30.037h377.79895z" fill="#fff"/><g clip-path="url(#a)" fill="#bef4fe" fill-opacity=".22"><path d="m392.792 61.2676c-.578-.2315-1.189-.4052-1.829-.5168-2.618-.4506-5.166.2605-7.111 1.757-3.449-3.6835-8.237-6.106-13.589-6.507.523-1.9224.806-3.9398.806-6.0234 0-12.6916-10.344-22.9813-23.103-22.9813-11.234 0-20.589 7.9746-22.671 18.5413-2.115-.616-4.347-.9508-6.662-.9508-3.117 0-6.088.6036-8.815 1.6908-2.169-1.5668-4.837-2.4928-7.726-2.4928-6.969 0-12.671 5.3867-13.132 12.2038-.507-.0331-1.019-.0538-1.53-.0538-13.507 0-24.458 10.8933-24.458 24.329 0 13.4358 10.951 24.3294 24.458 24.3294 1.081 0 2.141-.079 3.18-.211 3.412 8.359 11.649 14.254 21.278 14.254 3.699 0 7.194-.876 10.29-2.422 5.361 7.718 14.313 12.778 24.458 12.778 12.779 0 23.668-8.024 27.866-19.281 1.733.607 3.594.938 5.535.938 5.125 0 9.704-2.303 12.759-5.924v-43.4574z"/><path d="m94.0951 44.9045c-7.7383 0-14.5541 3.9233-18.5521 9.8805-5.2947-4.192-11.9941-6.7014-19.2878-6.7014-2.2068 0-4.3638.2357-6.4417.6698-.6151-5.7381-5.4942-10.2071-11.4248-10.2071-3.8899 0-7.3269 1.9265-9.409 4.87-5.5441-4.808-12.7921-7.7308-20.72578-7.7308-3.44528 0-6.75758.5581-9.86207 1.571v59.6423c3.10449 1.0169 6.41679 1.5709 9.86207 1.5709 2.98818 0 5.87648-.4217 8.61528-1.1947-.3532 1.5875-.5486 3.237-.5486 4.928 0 12.509 10.1946 22.65 22.7705 22.65 10.02 0 18.5189-6.436 21.5652-15.378 12.0856-1.712 21.9227-10.348 25.3264-21.7456 2.5144.9756 5.2448 1.5172 8.1083 1.5172 12.31 0 22.293-9.9259 22.293-22.1752 0-12.2492-9.979-22.1751-22.293-22.1751z"/></g></svg>