<svg width="375" height="219" viewBox="0 0 375 219" fill="none" xmlns="http://www.w3.org/2000/svg">
<rect x="23" y="146" width="111" height="73" fill="#A7B1C9"/>
<path d="M61.66 174V172.34C62.96 171.347 64.0967 170.447 65.07 169.64C66.0433 168.827 66.8733 168.09 67.56 167.43C68.2467 166.77 68.8033 166.17 69.23 165.63C69.6567 165.083 69.9667 164.583 70.16 164.13C70.36 163.67 70.46 163.237 70.46 162.83C70.46 162.323 70.34 161.863 70.1 161.45C69.86 161.03 69.5333 160.697 69.12 160.45C68.7133 160.203 68.2533 160.08 67.74 160.08C67.2467 160.08 66.79 160.207 66.37 160.46C65.9567 160.707 65.5933 161.073 65.28 161.56C64.9667 162.047 64.7067 162.643 64.5 163.35L61.78 162.08C61.98 161.327 62.2667 160.65 62.64 160.05C63.02 159.443 63.4733 158.927 64 158.5C64.5333 158.073 65.13 157.747 65.79 157.52C66.45 157.293 67.1633 157.18 67.93 157.18C69.0967 157.18 70.1333 157.423 71.04 157.91C71.9467 158.39 72.6567 159.047 73.17 159.88C73.69 160.713 73.95 161.663 73.95 162.73C73.95 163.263 73.8767 163.787 73.73 164.3C73.5833 164.813 73.3533 165.333 73.04 165.86C72.7267 166.38 72.32 166.917 71.82 167.47C71.32 168.017 70.7167 168.593 70.01 169.2C69.31 169.8 68.4933 170.44 67.56 171.12H74.25V174H61.66ZM76.7592 174V166.832H78.9082V167.63C79.1835 167.322 79.5265 167.075 79.9372 166.888C80.3525 166.701 80.8099 166.608 81.3092 166.608C81.8599 166.608 82.3429 166.729 82.7582 166.972C83.1782 167.21 83.5072 167.544 83.7452 167.973C83.9832 168.398 84.1022 168.895 84.1022 169.464V174H81.9532V169.919C81.9532 169.406 81.8179 169.007 81.5472 168.722C81.2812 168.433 80.9149 168.288 80.4482 168.288C80.1309 168.288 79.8555 168.353 79.6222 168.484C79.3935 168.61 79.2162 168.785 79.0902 169.009C78.9689 169.228 78.9082 169.478 78.9082 169.758V174H76.7592ZM89.4616 174.224C88.8129 174.224 88.2202 174.063 87.6836 173.741C87.1516 173.414 86.7269 172.964 86.4096 172.39C86.0922 171.816 85.9336 171.158 85.9336 170.416C85.9336 169.688 86.0876 169.039 86.3956 168.47C86.7036 167.896 87.1259 167.443 87.6626 167.112C88.2039 166.776 88.8222 166.608 89.5176 166.608C90.0216 166.608 90.4882 166.706 90.9176 166.902C91.3469 167.093 91.7039 167.362 91.9886 167.707V161.96H94.1376V174H91.9886V173.055C91.6712 173.424 91.2956 173.711 90.8616 173.916C90.4276 174.121 89.9609 174.224 89.4616 174.224ZM90.1056 172.397C90.4836 172.397 90.8172 172.313 91.1066 172.145C91.3959 171.972 91.6222 171.737 91.7856 171.438C91.9536 171.139 92.0376 170.801 92.0376 170.423C92.0376 170.04 91.9536 169.7 91.7856 169.401C91.6222 169.102 91.3959 168.867 91.1066 168.694C90.8172 168.521 90.4859 168.435 90.1126 168.435C89.7439 168.435 89.4149 168.521 89.1256 168.694C88.8409 168.867 88.6146 169.105 88.4466 169.408C88.2786 169.707 88.1946 170.047 88.1946 170.43C88.1946 170.808 88.2762 171.146 88.4396 171.445C88.6029 171.739 88.8292 171.972 89.1186 172.145C89.4079 172.313 89.7369 172.397 90.1056 172.397Z" fill="black"/>
<rect x="55" y="182" width="47" height="21" rx="6" fill="black"/>
<path d="M50.6316 122.632L23 146.316H134V122.632H50.6316Z" fill="#C5D2EF"/>
<g filter="url(#filter0_d_660_7648)">
<circle cx="80.5" cy="98.5" r="26.5" fill="#FDD25C"/>
</g>
<rect width="109" height="73" transform="matrix(-1 0 0 1 359 146)" fill="#D89449"/>
<path d="M295.4 181.32C294.413 181.32 293.51 181.15 292.69 180.81C291.87 180.47 291.177 179.993 290.61 179.38C290.043 178.767 289.647 178.043 289.42 177.21L292.42 175.79C292.467 176.323 292.613 176.797 292.86 177.21C293.113 177.617 293.457 177.937 293.89 178.17C294.33 178.397 294.837 178.51 295.41 178.51C296.21 178.51 296.847 178.29 297.32 177.85C297.8 177.41 298.04 176.827 298.04 176.1C298.04 175.58 297.923 175.117 297.69 174.71C297.457 174.297 297.14 173.973 296.74 173.74C296.347 173.5 295.907 173.38 295.42 173.38C295.14 173.38 294.9 173.42 294.7 173.5V171.34H295.45C295.883 171.34 296.273 171.233 296.62 171.02C296.973 170.8 297.253 170.51 297.46 170.15C297.673 169.79 297.78 169.403 297.78 168.99C297.78 168.583 297.673 168.217 297.46 167.89C297.253 167.563 296.973 167.303 296.62 167.11C296.267 166.917 295.87 166.82 295.43 166.82C294.99 166.82 294.58 166.92 294.2 167.12C293.827 167.32 293.517 167.593 293.27 167.94C293.023 168.287 292.867 168.687 292.8 169.14L290.23 167.94C290.417 167.193 290.76 166.54 291.26 165.98C291.76 165.413 292.373 164.977 293.1 164.67C293.833 164.357 294.63 164.2 295.49 164.2C296.497 164.2 297.393 164.407 298.18 164.82C298.973 165.233 299.597 165.797 300.05 166.51C300.503 167.217 300.73 168.023 300.73 168.93C300.73 169.397 300.66 169.833 300.52 170.24C300.387 170.647 300.193 171.017 299.94 171.35C299.687 171.683 299.38 171.97 299.02 172.21C299.487 172.457 299.89 172.77 300.23 173.15C300.57 173.53 300.83 173.967 301.01 174.46C301.19 174.947 301.28 175.49 301.28 176.09C301.28 177.09 301.033 177.987 300.54 178.78C300.047 179.567 299.357 180.187 298.47 180.64C297.59 181.093 296.567 181.32 295.4 181.32ZM303.744 181V173.832H305.893V174.861C306.159 174.46 306.483 174.152 306.866 173.937C307.253 173.718 307.668 173.608 308.112 173.608C308.364 173.608 308.625 173.645 308.896 173.72C309.166 173.795 309.393 173.89 309.575 174.007L308.679 175.82C308.52 175.713 308.333 175.629 308.119 175.568C307.909 175.503 307.713 175.47 307.531 175.47C307.251 175.47 306.985 175.542 306.733 175.687C306.481 175.832 306.278 176.021 306.124 176.254C305.97 176.483 305.893 176.73 305.893 176.996V181H303.744ZM313.739 181.224C313.09 181.224 312.498 181.063 311.961 180.741C311.429 180.414 311.004 179.964 310.687 179.39C310.37 178.816 310.211 178.158 310.211 177.416C310.211 176.688 310.365 176.039 310.673 175.47C310.981 174.896 311.403 174.443 311.94 174.112C312.481 173.776 313.1 173.608 313.795 173.608C314.299 173.608 314.766 173.706 315.195 173.902C315.624 174.093 315.981 174.362 316.266 174.707V168.96H318.415V181H316.266V180.055C315.949 180.424 315.573 180.711 315.139 180.916C314.705 181.121 314.238 181.224 313.739 181.224ZM314.383 179.397C314.761 179.397 315.095 179.313 315.384 179.145C315.673 178.972 315.9 178.737 316.063 178.438C316.231 178.139 316.315 177.801 316.315 177.423C316.315 177.04 316.231 176.7 316.063 176.401C315.9 176.102 315.673 175.867 315.384 175.694C315.095 175.521 314.763 175.435 314.39 175.435C314.021 175.435 313.692 175.521 313.403 175.694C313.118 175.867 312.892 176.105 312.724 176.408C312.556 176.707 312.472 177.047 312.472 177.43C312.472 177.808 312.554 178.146 312.717 178.445C312.88 178.739 313.107 178.972 313.396 179.145C313.685 179.313 314.014 179.397 314.383 179.397Z" fill="black"/>
<rect x="281" y="189" width="47" height="21" rx="6" fill="black"/>
<path d="M332.474 122.632L360.105 146.316H250V122.632H332.474Z" fill="#EAA85F"/>
<g filter="url(#filter1_d_660_7648)">
<circle cx="304.5" cy="103.5" r="26.5" fill="#F4ADE9"/>
</g>
<rect width="116" height="120" transform="matrix(-1 0 0 1 250 99)" fill="#FEDA15"/>
<path d="M184.44 130V116.68H181.98V113.5H187.68V130H184.44ZM193.137 130.224C192.53 130.224 191.987 130.128 191.506 129.937C191.03 129.746 190.633 129.466 190.316 129.097L191.219 127.655C191.518 127.972 191.83 128.215 192.157 128.383C192.484 128.551 192.81 128.635 193.137 128.635C193.319 128.635 193.475 128.605 193.606 128.544C193.741 128.483 193.846 128.397 193.921 128.285C194 128.168 194.04 128.028 194.04 127.865C194.04 127.678 193.986 127.531 193.879 127.424C193.776 127.317 193.618 127.219 193.403 127.13C193.188 127.037 192.911 126.92 192.57 126.78C192.281 126.659 192.003 126.521 191.737 126.367C191.471 126.213 191.254 126.017 191.086 125.779C190.923 125.541 190.841 125.24 190.841 124.876C190.841 124.433 190.965 124.043 191.212 123.707C191.459 123.366 191.8 123.1 192.234 122.909C192.673 122.718 193.177 122.622 193.746 122.622C194.101 122.622 194.472 122.676 194.859 122.783C195.251 122.89 195.669 123.054 196.112 123.273L195.377 124.652C194.775 124.265 194.236 124.071 193.76 124.071C193.494 124.071 193.282 124.129 193.123 124.246C192.964 124.363 192.885 124.51 192.885 124.687C192.885 124.855 192.967 125.002 193.13 125.128C193.298 125.249 193.501 125.359 193.739 125.457C193.982 125.55 194.213 125.637 194.432 125.716C194.791 125.847 195.109 125.991 195.384 126.15C195.664 126.309 195.883 126.516 196.042 126.773C196.201 127.025 196.28 127.363 196.28 127.788C196.28 128.306 196.154 128.747 195.902 129.111C195.655 129.47 195.295 129.746 194.824 129.937C194.357 130.128 193.795 130.224 193.137 130.224ZM200.619 130.224C199.905 130.224 199.35 129.998 198.953 129.545C198.556 129.088 198.358 128.451 198.358 127.634V124.463H197.399V122.832H198.358V120.144H200.507V122.832H202.082V124.463H200.507V127.48C200.507 127.751 200.561 127.956 200.668 128.096C200.78 128.236 200.936 128.306 201.137 128.306C201.361 128.306 201.576 128.231 201.781 128.082L202.32 129.804C202.077 129.935 201.804 130.037 201.501 130.112C201.202 130.187 200.908 130.224 200.619 130.224Z" fill="black"/>
<rect x="169" y="141" width="47" height="21" rx="6" fill="black"/>
<path d="M157.059 80L133.526 98.9474H250.364L227.469 80H157.059Z" fill="#F4E487"/>
<g filter="url(#filter2_d_660_7648)">
<circle cx="194.5" cy="50.5" r="26.5" fill="#F4ADE9"/>
</g>
<defs>
<filter id="filter0_d_660_7648" x="36" y="54" width="89" height="89" filterUnits="userSpaceOnUse" color-interpolation-filters="sRGB">
<feFlood flood-opacity="0" result="BackgroundImageFix"/>
<feColorMatrix in="SourceAlpha" type="matrix" values="0 0 0 0 0 0 0 0 0 0 0 0 0 0 0 0 0 0 127 0" result="hardAlpha"/>
<feOffset/>
<feGaussianBlur stdDeviation="9"/>
<feComposite in2="hardAlpha" operator="out"/>
<feColorMatrix type="matrix" values="0 0 0 0 0.654902 0 0 0 0 0.694118 0 0 0 0 0.788235 0 0 0 1 0"/>
<feBlend mode="normal" in2="BackgroundImageFix" result="effect1_dropShadow_660_7648"/>
<feBlend mode="normal" in="SourceGraphic" in2="effect1_dropShadow_660_7648" result="shape"/>
</filter>
<filter id="filter1_d_660_7648" x="260" y="59" width="89" height="89" filterUnits="userSpaceOnUse" color-interpolation-filters="sRGB">
<feFlood flood-opacity="0" result="BackgroundImageFix"/>
<feColorMatrix in="SourceAlpha" type="matrix" values="0 0 0 0 0 0 0 0 0 0 0 0 0 0 0 0 0 0 127 0" result="hardAlpha"/>
<feOffset/>
<feGaussianBlur stdDeviation="9"/>
<feComposite in2="hardAlpha" operator="out"/>
<feColorMatrix type="matrix" values="0 0 0 0 0.847059 0 0 0 0 0.580392 0 0 0 0 0.286275 0 0 0 1 0"/>
<feBlend mode="normal" in2="BackgroundImageFix" result="effect1_dropShadow_660_7648"/>
<feBlend mode="normal" in="SourceGraphic" in2="effect1_dropShadow_660_7648" result="shape"/>
</filter>
<filter id="filter2_d_660_7648" x="150" y="6" width="89" height="89" filterUnits="userSpaceOnUse" color-interpolation-filters="sRGB">
<feFlood flood-opacity="0" result="BackgroundImageFix"/>
<feColorMatrix in="SourceAlpha" type="matrix" values="0 0 0 0 0 0 0 0 0 0 0 0 0 0 0 0 0 0 127 0" result="hardAlpha"/>
<feOffset/>
<feGaussianBlur stdDeviation="9"/>
<feComposite in2="hardAlpha" operator="out"/>
<feColorMatrix type="matrix" values="0 0 0 0 0.996078 0 0 0 0 0.854902 0 0 0 0 0.0823529 0 0 0 1 0"/>
<feBlend mode="normal" in2="BackgroundImageFix" result="effect1_dropShadow_660_7648"/>
<feBlend mode="normal" in="SourceGraphic" in2="effect1_dropShadow_660_7648" result="shape"/>
</filter>
</defs>
</svg>
