<svg fill="none" height="65" viewBox="0 0 375 65" width="375" xmlns="http://www.w3.org/2000/svg"><path d="m388 64.4743c-13.733 4.0503-99.771-16.955-206.668-6.845-106.8979 10.1099-212.1477-5.7904-239.332-35.6823h446z" fill="#ededed"/><path d="m427 57.4167c-15.088 4.4269-109.614-18.5323-227.057-7.4819-117.4437 11.0504-233.0768-6.329-262.943-39.0015h490z" fill="#ededed"/><path d="m427 48.4059c-15.088 4.427-109.614-18.5323-227.057-7.4818-117.4437 11.0504-233.0768-6.329-262.943-39.00161h490z" fill="#f8f8f8"/><path d="m375 36.328c-11.701 3.3909-85.007-14.195-176.085-5.7308-91.079 8.4642-180.7535-4.8477-203.915-29.873567h380z" fill="#fff"/></svg>